<svg width="668" height="235" viewBox="0 0 668 235" fill="none" xmlns="http://www.w3.org/2000/svg">
<circle cx="69.5" cy="128.5" r="38" fill="#FF9900" stroke="#FF9900"/>
<path fill-rule="evenodd" clip-rule="evenodd" d="M108.5 99.8824C102.847 99.8824 98.2647 104.412 98.2647 110C98.2647 115.588 102.847 120.118 108.5 120.118C114.153 120.118 118.735 115.588 118.735 110C118.735 104.412 114.153 99.8824 108.5 99.8824ZM96.9853 110C96.9853 103.714 102.141 98.6177 108.5 98.6177C114.859 98.6177 120.015 103.714 120.015 110C120.015 116.286 114.859 121.382 108.5 121.382C102.141 121.382 96.9853 116.286 96.9853 110Z" fill="black"/>
<path fill-rule="evenodd" clip-rule="evenodd" d="M108.5 71.2156C106.747 71.2156 105.066 71.9041 103.826 73.1295C102.586 74.3549 101.89 76.0169 101.89 77.7499V78.3591L101.89 78.3616C101.885 79.638 101.502 80.8851 100.789 81.9493C100.076 83.0135 99.0639 83.8484 97.8771 84.3512C97.7974 84.3849 97.7117 84.4023 97.6251 84.4023H97.4664C96.2896 84.887 94.9951 85.0259 93.7388 84.8007C92.4371 84.5674 91.2359 83.9539 90.2902 83.0395L90.2852 83.0346L90.0677 82.8196C89.4538 82.2121 88.7245 81.7298 87.922 81.401C87.1196 81.0722 86.2594 80.9029 85.3907 80.9029C84.522 80.9029 83.6618 81.0722 82.8593 81.401C82.0569 81.7298 81.3278 82.2118 80.7139 82.8193L80.7134 82.8198C80.0988 83.4267 79.6112 84.1474 79.2786 84.9406C78.9459 85.7339 78.7747 86.5842 78.7747 87.4429C78.7747 88.3016 78.9459 89.1519 79.2786 89.9451C79.6112 90.7384 80.0988 91.459 80.7134 92.0659L80.9361 92.2861C81.8612 93.2209 82.4817 94.4083 82.7178 95.695C82.9526 96.9752 82.7961 98.2954 82.2684 99.487C81.8085 100.712 80.9883 101.772 79.9132 102.532C78.8326 103.296 77.5444 103.721 76.2163 103.752L76.2013 103.752H75.8751C74.1219 103.752 72.4405 104.441 71.2009 105.666C69.9612 106.892 69.2648 108.554 69.2648 110.287C69.2648 112.02 69.9612 113.682 71.2009 114.907C72.4405 116.132 74.1219 116.821 75.8751 116.821H76.4939C77.7851 116.826 79.0466 117.204 80.1232 117.909C81.1988 118.613 82.0429 119.613 82.5517 120.784C83.0847 121.98 83.2436 123.306 83.0078 124.592C82.7717 125.878 82.1512 127.066 81.2261 128L81.2212 128.005L81.0036 128.22C80.389 128.827 79.9012 129.548 79.5686 130.341C79.2359 131.135 79.0647 131.985 79.0647 132.844C79.0647 133.702 79.2359 134.553 79.5686 135.346C79.9012 136.139 80.3888 136.86 81.0034 137.467L81.0039 137.467C81.6178 138.075 82.3469 138.557 83.1493 138.886C83.9518 139.214 84.812 139.384 85.6807 139.384C86.5494 139.384 87.4095 139.214 88.212 138.886C89.0145 138.557 89.7435 138.075 90.3575 137.467L90.5802 137.247C91.5259 136.333 92.7271 135.719 94.0288 135.486C95.3239 135.254 96.6594 135.408 97.8648 135.93C99.1037 136.385 100.177 137.196 100.946 138.258C101.719 139.326 102.149 140.6 102.18 141.913L102.18 141.927V142.25C102.18 143.983 102.876 145.645 104.116 146.87C105.356 148.096 107.037 148.784 108.79 148.784C110.543 148.784 112.225 148.096 113.464 146.87C114.704 145.645 115.4 143.983 115.4 142.25V141.641L115.4 141.638C115.405 140.362 115.788 139.115 116.501 138.051C117.213 136.987 118.224 136.153 119.41 135.65C120.619 135.123 121.961 134.966 123.261 135.199C124.563 135.433 125.764 136.046 126.71 136.96L126.715 136.965L126.932 137.18C127.546 137.788 128.276 138.27 129.078 138.599C129.881 138.928 130.741 139.097 131.609 139.097C132.478 139.097 133.338 138.928 134.141 138.599C134.943 138.27 135.672 137.788 136.286 137.181L136.287 137.18C136.901 136.573 137.389 135.853 137.722 135.059C138.054 134.266 138.225 133.416 138.225 132.557C138.225 131.698 138.054 130.848 137.722 130.055C137.389 129.262 136.901 128.541 136.287 127.934L136.064 127.714C135.139 126.779 134.518 125.592 134.282 124.305C134.047 123.019 134.205 121.693 134.739 120.497C135.247 119.326 136.091 118.326 137.167 117.622C138.243 116.918 139.505 116.539 140.796 116.534L140.799 116.534L141.125 116.534C142.878 116.534 144.56 115.846 145.799 114.62C147.039 113.395 147.735 111.733 147.735 110C147.735 108.267 147.039 106.605 145.799 105.379C144.56 104.154 142.878 103.466 141.125 103.466H140.509L140.506 103.466C139.215 103.461 137.953 103.082 136.877 102.378C135.8 101.673 134.956 100.672 134.447 99.4991C134.413 99.4203 134.395 99.3356 134.395 99.2499V99.0931C133.905 97.9298 133.765 96.6503 133.992 95.4084C134.228 94.1216 134.849 92.9343 135.774 91.9994L135.779 91.9944L135.996 91.7795C136.611 91.1726 137.099 90.4517 137.432 89.6585C137.764 88.8652 137.935 88.0149 137.935 87.1562C137.935 86.2975 137.764 85.4472 137.432 84.6539C137.099 83.8607 136.611 83.14 135.997 82.5332L135.996 82.5327C135.382 81.9251 134.653 81.4432 133.851 81.1143C133.048 80.7855 132.188 80.6162 131.319 80.6162C130.451 80.6162 129.591 80.7855 128.788 81.1143C127.986 81.4432 127.257 81.9251 126.643 82.5327L126.42 82.7529C125.474 83.6673 124.273 84.2807 122.971 84.514C121.671 84.7471 120.329 84.5901 119.12 84.0632C117.934 83.5602 116.923 82.7259 116.211 81.6626C115.498 80.5984 115.116 79.3514 115.11 78.075L115.11 78.0724V77.7499C115.11 76.0169 114.414 74.3549 113.174 73.1295C111.935 71.9041 110.253 71.2156 108.5 71.2156ZM102.921 72.2352C104.401 70.7726 106.408 69.9509 108.5 69.9509C110.593 69.9509 112.599 70.7726 114.079 72.2352C115.559 73.6978 116.39 75.6815 116.39 77.7499L116.39 78.0699C116.39 78.0703 116.39 78.0707 116.39 78.0711C116.394 79.1004 116.703 80.1061 117.278 80.9643C117.853 81.8228 118.67 82.4964 119.627 82.9021L119.633 82.9047C120.61 83.3307 121.693 83.4578 122.743 83.2696C123.792 83.0816 124.76 82.5875 125.523 81.851C125.524 81.8503 125.524 81.8495 125.525 81.8487L125.737 81.6389C125.738 81.6388 125.737 81.639 125.737 81.6389C126.47 80.9139 127.34 80.3385 128.298 79.946C129.256 79.5536 130.283 79.3515 131.319 79.3515C132.356 79.3515 133.383 79.5536 134.341 79.946C135.298 80.3384 136.168 80.9135 136.901 81.6384C137.634 82.3627 138.216 83.2229 138.613 84.1696C139.01 85.1164 139.215 86.1313 139.215 87.1562C139.215 88.1811 139.01 89.196 138.613 90.1428C138.216 91.0895 137.634 91.9497 136.901 92.674L136.689 92.8838C136.688 92.8846 136.687 92.8854 136.686 92.8863C135.941 93.6401 135.441 94.597 135.251 95.634C135.061 96.6721 135.189 97.7428 135.62 98.708C135.656 98.7884 135.675 98.8754 135.675 98.9633V99.1163C136.089 100.013 136.75 100.778 137.583 101.323C138.452 101.891 139.469 102.197 140.51 102.201H141.125C143.218 102.201 145.224 103.023 146.704 104.485C148.184 105.948 149.015 107.932 149.015 110C149.015 112.068 148.184 114.052 146.704 115.515C145.224 116.977 143.218 117.799 141.125 117.799L140.801 117.799C140.801 117.799 140.801 117.799 140.8 117.799C139.759 117.803 138.742 118.108 137.873 118.677C137.005 119.245 136.323 120.053 135.913 120.999L135.91 121.005C135.479 121.97 135.351 123.041 135.541 124.079C135.731 125.116 136.231 126.073 136.976 126.827C136.977 126.828 136.978 126.829 136.979 126.829L137.191 127.039C137.191 127.039 137.191 127.039 137.191 127.039C137.924 127.763 138.506 128.624 138.903 129.57C139.3 130.517 139.505 131.532 139.505 132.557C139.505 133.582 139.3 134.597 138.903 135.544C138.506 136.49 137.925 137.35 137.191 138.075C136.458 138.8 135.588 139.375 134.631 139.767C133.673 140.16 132.646 140.362 131.609 140.362C130.573 140.362 129.546 140.16 128.588 139.767C127.63 139.375 126.76 138.8 126.028 138.075C126.028 138.075 126.028 138.075 126.028 138.075L125.815 137.864C125.814 137.864 125.813 137.863 125.813 137.862C125.05 137.126 124.082 136.632 123.033 136.444C121.983 136.255 120.9 136.382 119.923 136.808L119.917 136.811C118.96 137.217 118.143 137.89 117.568 138.749C116.993 139.607 116.684 140.613 116.68 141.642C116.68 141.643 116.68 141.643 116.68 141.643L116.68 142.25C116.68 144.318 115.849 146.302 114.369 147.765C112.889 149.227 110.883 150.049 108.79 150.049C106.698 150.049 104.691 149.227 103.211 147.765C101.732 146.302 100.9 144.318 100.9 142.25V141.935C100.874 140.878 100.527 139.854 99.9051 138.994C99.2816 138.132 98.4102 137.476 97.4042 137.11C97.3974 137.108 97.3907 137.105 97.384 137.102C97.3782 137.1 97.3725 137.098 97.3668 137.095C96.3903 136.669 95.3072 136.542 94.2571 136.73C93.208 136.918 92.24 137.412 91.4774 138.149C91.4765 138.15 91.4757 138.15 91.4749 138.151L91.2626 138.361C90.5299 139.086 89.6598 139.661 88.702 140.054C87.7442 140.446 86.7175 140.648 85.6807 140.648C84.6439 140.648 83.6172 140.446 82.6594 140.054C81.7016 139.661 80.8315 139.086 80.0987 138.361C79.3654 137.637 78.7836 136.777 78.3867 135.83C77.9896 134.883 77.7853 133.869 77.7853 132.844C77.7853 131.819 77.9896 130.804 78.3867 129.857C78.7837 128.91 79.3655 128.05 80.099 127.326C80.099 127.326 80.0989 127.326 80.099 127.326L80.3115 127.116C80.3123 127.115 80.3131 127.114 80.3139 127.114C81.0589 126.36 81.5587 125.403 81.7489 124.366C81.9393 123.328 81.8107 122.257 81.3798 121.292L81.377 121.286C80.9667 120.339 80.2853 119.532 79.4168 118.963C78.5486 118.395 77.5313 118.09 76.4899 118.086C76.4895 118.086 76.4892 118.086 76.4888 118.086L75.8751 118.086C73.7826 118.086 71.7758 117.264 70.2962 115.801C68.8166 114.339 67.9854 112.355 67.9854 110.287C67.9854 108.218 68.8166 106.234 70.2962 104.772C71.7758 103.309 73.7826 102.488 75.8751 102.488H76.1936C77.2626 102.461 78.2991 102.119 79.1689 101.504C80.0407 100.887 80.7047 100.026 81.0747 99.0317C81.0793 99.0192 81.0844 99.0068 81.0898 98.9946C81.5207 98.0294 81.6493 96.9587 81.4589 95.9207C81.2687 94.8837 80.7689 93.9267 80.0239 93.1729L79.8092 92.9607C79.0757 92.2364 78.4937 91.3762 78.0967 90.4294C77.6996 89.4826 77.4953 88.4678 77.4953 87.4429C77.4953 86.418 77.6996 85.4031 78.0967 84.4563C78.4937 83.5095 79.0757 82.6494 79.8092 81.9251C80.5419 81.2002 81.4118 80.6251 82.3694 80.2327C83.3272 79.8402 84.3539 79.6382 85.3907 79.6382C86.4275 79.6382 87.4542 79.8402 88.412 80.2327C89.3697 80.6251 90.2397 81.2003 90.9724 81.9253C90.9725 81.9254 90.9723 81.9252 90.9724 81.9253L91.1874 82.1378C91.95 82.8742 92.918 83.3682 93.967 83.5563C95.0172 83.7445 96.1003 83.6174 97.0768 83.1914C97.1581 83.1559 97.2461 83.1376 97.3351 83.1376H97.4899C98.397 82.7276 99.1707 82.0744 99.7223 81.251C100.297 80.3927 100.606 79.3871 100.61 78.3578V77.7499C100.61 75.6815 101.442 73.6978 102.921 72.2352Z" fill="black"/>
</svg>
