<svg width="668" height="235" viewBox="0 0 668 235" fill="none" xmlns="http://www.w3.org/2000/svg">
<circle cx="71" cy="124" r="40" fill="#FF9900"/>
<path fill-rule="evenodd" clip-rule="evenodd" d="M88.9224 82.9102C89.1064 82.5912 89.5141 82.4817 89.833 82.6657L128.833 105.156C129.152 105.34 129.261 105.747 129.077 106.066C128.894 106.385 128.486 106.495 128.167 106.311L89.1669 83.8207C88.848 83.6368 88.7385 83.2291 88.9224 82.9102Z" fill="black"/>
<path fill-rule="evenodd" clip-rule="evenodd" d="M104.335 74.2586C105.753 73.4399 107.362 73.0089 109 73.0089C110.638 73.0089 112.247 73.4399 113.665 74.2586C113.666 74.2588 113.666 74.2591 113.667 74.2593L144 91.5927C145.417 92.411 146.595 93.5877 147.414 95.0048C148.233 96.4218 148.665 98.0293 148.667 99.666V134.334C148.665 135.971 148.233 137.578 147.414 138.995C146.595 140.412 145.417 141.589 144 142.407L143.997 142.409L113.667 159.741C113.666 159.741 113.666 159.741 113.666 159.741C112.247 160.56 110.638 160.991 109 160.991C107.362 160.991 105.753 160.56 104.334 159.741C104.334 159.741 104.334 159.741 104.333 159.741L74.0026 142.409L74 142.407C72.5825 141.589 71.4052 140.412 70.5861 138.995C69.767 137.578 69.335 135.971 69.3333 134.334V99.666C69.335 98.0293 69.767 96.4218 70.5861 95.0048C71.4052 93.5877 72.5825 92.411 74 91.5927L74.0026 91.5912L104.333 74.2593C104.334 74.2591 104.334 74.2588 104.335 74.2586ZM109 74.3422C107.596 74.3422 106.216 74.7119 105 75.414L104.997 75.4155L74.6666 92.7474C74.6662 92.7476 74.6657 92.7479 74.6653 92.7482C73.4509 93.4496 72.4423 94.4579 71.7405 95.672C71.0385 96.8865 70.6681 98.2642 70.6666 99.667V134.333C70.6681 135.736 71.0385 137.114 71.7405 138.328C72.4423 139.542 73.4508 140.55 74.6651 141.252C74.6656 141.252 74.6661 141.252 74.6666 141.253L105 158.586C106.216 159.288 107.596 159.658 109 159.658C110.404 159.658 111.784 159.288 113 158.586L113.003 158.585L143.333 141.253C143.334 141.252 143.334 141.252 143.335 141.252C144.549 140.55 145.558 139.542 146.259 138.328C146.962 137.113 147.332 135.736 147.333 134.333V99.6674C147.332 98.2645 146.962 96.8866 146.259 95.672C145.558 94.4579 144.549 93.4496 143.335 92.7482C143.334 92.7479 143.334 92.7476 143.333 92.7474L113.003 75.4155L113 75.414C111.784 74.7119 110.404 74.3422 109 74.3422Z" fill="black"/>
<path fill-rule="evenodd" clip-rule="evenodd" d="M70.5931 94.8261C70.7774 94.5074 71.1852 94.3985 71.504 94.5829L109 116.273L146.496 94.5829C146.815 94.3985 147.223 94.5074 147.407 94.8261C147.592 95.1448 147.483 95.5527 147.164 95.737L109.334 117.62C109.127 117.74 108.873 117.74 108.666 117.62L70.8363 95.737C70.5176 95.5527 70.4087 95.1448 70.5931 94.8261Z" fill="black"/>
<path fill-rule="evenodd" clip-rule="evenodd" d="M109 116.333C109.368 116.333 109.667 116.632 109.667 117V160.68C109.667 161.048 109.368 161.347 109 161.347C108.632 161.347 108.333 161.048 108.333 160.68V117C108.333 116.632 108.632 116.333 109 116.333Z" fill="black"/>
</svg>
